{"title":"Fallen.Angels.1995.BluRay.720p.x264.DTS-MySilu","uid":7134514,"size":5365950979,"categoryP":"video","categoryS":"hd___movies","magnet":"?xt=urn:btih:fb1ca776848e6b9c1744f4585d1640ca32c8dc16&amp;dn=Fallen.Angels.1995.BluRay.720p.x264.DTS-MySilu&amp;tr=udp%3A%2F%2Ftracker.openbittorrent.com%3A80&amp;tr=udp%3A%2F%2Fopen.demonii.com%3A1337&amp;tr=udp%3A%2F%2Ftracker.coppersurfer.tk%3A6969&amp;tr=udp%3A%2F%2Fexodus.desync.com%3A6969","seeders":2,"leechers":1,"uploader":"mfccorrea","files":4,"time":1332807089,"description":"Wong Kar-wai's Fallen Angels dives headfirst into the cultural alienation and milennial dread of modern-day Hong Kong. The film has a distinctly detached feeling about it that is certainly close to what its characters must feel. Some scenes are hypnotic and dreamlike, while others seem brutally real. The film's characters always seem to be wandering, or, perhaps, simply going through the motions of life. The voice-overs - which Wong uses as effectively as any director since the heyday of Terrence Malick - effectively add an extra dimension to the characters. The ending of Fallen Angels is one of the most beautiful, poetic, and true ever filmed.\nWhile this film's predecessor, Wong's Chungking Express is a wonderful, exceptional movie, Fallen Angels is ultimately superior - a masterpiece that Wong only surpassed with his last film, the astonishing In the Mood for Love. Still, while In the Mood for Love may be Wong's best film to date, Fallen Angels remains (as it probably always will) the quintessential Wong Kar-wai picture in that it perfectly embodies the bold, Godardian, recklessness that the name Wong Kar-wai immediately brings to mind. [imdb]\n\n   General\n      Complete name : Fallen.Angels.1995.BluRay.720p.x264.DTS-MySilu.mkv\n      Format : Matroska\n      File size : 5.00 GiB\n      Duration : 1h 39mn\n      Overall bit rate : 7 225 Kbps      \n      Writing application : mkvmerge v3.3.0 ('Language') ??? Mar 24 2010 14:59:24\n      Writing library : libebml v0.8.0 + libmatroska v0.9.0\n   Video #1\n      ID : 1\n      Format : AVC\n      Format/Info : Advanced Video Codec\n      Format profile : &lt;a class=&quot;__cf_email__&quot; href=&quot;/cdn-cgi/l/email-protection&quot; data-cfemail=&quot;f7bf9e909fb7bbc3d9c6&quot;&gt;[email&amp;#160;protected]&lt;/a&gt;&lt;script cf-hash='f9e31' type=&quot;text/javascript&quot;&gt;\n/* &lt;![CDATA[ */!function(){try{var t=&quot;currentScript&quot;in document?document.currentScript:function(){for(var t=document.getElementsByTagName(&quot;script&quot;),e=t.length;e--;)if(t[e].getAttribute(&quot;cf-hash&quot;))return t[e]}();if(t&amp;&amp;t.previousSibling){var e,r,n,i,c=t.previousSibling,a=c.getAttribute(&quot;data-cfemail&quot;);if(a){for(e=&quot;&quot;,r=parseInt(a.substr(0,2),16),n=2;a.length-n;n+=2)i=parseInt(a.substr(n,2),16)^r,e+=String.fromCharCode(i);e=document.createTextNode(e),c.parentNode.replaceChild(e,c)}}}catch(u){}}();/* ]]&gt; */&lt;/script&gt;\n      Format settings, CABAC : Yes\n      Format settings, ReFrames : 9 frames\n      Muxing mode : Container profile=&lt;a class=&quot;__cf_email__&quot; href=&quot;/cdn-cgi/l/email-protection&quot; data-cfemail=&quot;95c0fbfefbfae2fbd5a1bba4&quot;&gt;[email&amp;#160;protected]&lt;/a&gt;&lt;script cf-hash='f9e31' type=&quot;text/javascript&quot;&gt;\n/* &lt;![CDATA[ */!function(){try{var t=&quot;currentScript&quot;in document?document.currentScript:function(){for(var t=document.getElementsByTagName(&quot;script&quot;),e=t.length;e--;)if(t[e].getAttribute(&quot;cf-hash&quot;))return t[e]}();if(t&amp;&amp;t.previousSibling){var e,r,n,i,c=t.previousSibling,a=c.getAttribute(&quot;data-cfemail&quot;);if(a){for(e=&quot;&quot;,r=parseInt(a.substr(0,2),16),n=2;a.length-n;n+=2)i=parseInt(a.substr(n,2),16)^r,e+=String.fromCharCode(i);e=document.createTextNode(e),c.parentNode.replaceChild(e,c)}}}catch(u){}}();/* ]]&gt; */&lt;/script&gt;\n      Codec ID : V_MPEG4/ISO/AVC\n      Duration : 1h 38mn\n      Bit rate : 5 572 Kbps\n      Nominal bit rate : 5 721 Kbps\n      Width : 1 280 pixels\n      Height : 708 pixels\n      Display aspect ratio : 16:9\n      Frame rate : 23.976 fps\n      Resolution : 24 bits\n      Colorimetry : 4:2:0\n      Scan type : Progressive\n      Bits/(Pixel*Frame) : 0.256\n      Stream size : 3.85 GiB (77%)      \n   Audio #2\n      ID : 2\n      Format : DTS\n      Format/Info : Digital Theater Systems\n      Codec ID : A_DTS\n      Duration : 1h 39mn\n      Bit rate mode : Constant\n      Bit rate : 1 510 Kbps\n      Channel(s) : 6 channels\n      Channel positions : Front: L C R, Surround: L R, LFE\n      Sampling rate : 48.0 KHz\n      Resolution : 24 bits\n      Stream size : 1.04 GiB (21%)\n      Title : CHS DTS5.1 1.5M\n      Language : Chinese\n &lt;a href=&quot;\nhttp://www.imdb.com/title/tt0112913/&quot; rel=&quot;nofollow&quot; target=&quot;_NEW&quot;&gt;\nhttp://www.imdb.com/title/tt0112913/&lt;/a&gt;\n\nAudio: Chinese (Cantonese)\nSubtitles: English, Spanish, Portuguese (srt)","torrent":{"xt":"urn:btih:fb1ca776848e6b9c1744f4585d1640ca32c8dc16","amp;dn":"Fallen.Angels.1995.BluRay.720p.x264.DTS-MySilu","amp;tr":["udp%3A%2F%2Ftracker.openbittorrent.com%3A80","udp%3A%2F%2Fopen.demonii.com%3A1337","udp%3A%2F%2Ftracker.coppersurfer.tk%3A6969","udp%3A%2F%2Fexodus.desync.com%3A6969"],"infoHash":"fb1ca776848e6b9c1744f4585d1640ca32c8dc16","infoHashBuffer":{"type":"Buffer","data":[251,28,167,118,132,142,107,156,23,68,244,88,93,22,64,202,50,200,220,22]},"announce":[],"urlList":[]}}